<svg width="19" height="19" viewBox="0 0 19 19" fill="none" xmlns="http://www.w3.org/2000/svg">
<path fill-rule="evenodd" clip-rule="evenodd" d="M14.5145 0.469971V5.76401H13.4557V1.52878H1.80881V17.4109H13.4557V15.2933H14.5145V18.4697H0.75V0.469971H14.5145ZM15.7279 5.91976C15.9354 5.71223 16.27 5.71223 16.4775 5.91976L18.5951 8.03738C18.8016 8.24384 18.8016 8.57843 18.5951 8.78595L12.2423 15.1388C12.1428 15.2373 12.0083 15.2934 11.8675 15.2934H9.74987C9.45764 15.2934 9.22046 15.0562 9.22046 14.764V12.6464C9.22046 12.5055 9.27658 12.3711 9.37505 12.2726L15.7279 5.91976ZM14.272 8.87278L10.2793 12.8655V14.2346H11.6483L15.6411 10.2418L14.272 8.87278ZM7.10285 12.117V13.1758H3.92642V12.117H7.10285ZM9.22046 9.99935V11.0582H3.92642V9.99935H9.22046ZM16.1027 7.0421L15.0206 8.1242L16.3897 9.49324L17.4718 8.41114L16.1027 7.0421ZM11.3381 3.6465V7.88173H3.92642V3.6465H11.3381ZM10.2793 4.70531H4.98523V6.82292H10.2793V4.70531Z" fill="#455B6A"/>
</svg>
