<svg width="26" height="27" viewBox="0 0 26 27" fill="none" xmlns="http://www.w3.org/2000/svg">
<path d="M18.2994 20.5139H19.8139V18.9994H18.2994V20.5139ZM16.7849 22.0284V17.4848H21.3275V22.0274L16.7849 22.0284ZM12.2423 20.5139H13.7568V18.9994H12.2432L12.2423 20.5139ZM10.7278 22.0284V17.4848H15.2704V22.0274L10.7278 22.0284ZM6.18617 20.5139H7.70067V18.9994H6.18617V20.5139ZM4.6726 22.0274V17.4848H9.21517V22.0274H4.6726ZM18.2994 14.4568H19.8139V12.9432H18.2994V14.4568ZM16.7849 15.9713V11.4287H21.3275V15.9713H16.7849ZM12.2423 14.4568H13.7568V12.9432H12.2432L12.2423 14.4568ZM10.7278 15.9713V11.4287H15.2704V15.9713H10.7278ZM6.18617 14.4568H7.70067V12.9432H6.18617V14.4568ZM4.6726 15.9713V11.4287H9.21517V15.9713H4.6726ZM3.15717 25.0555H22.8429V8.40064H3.15717V25.0555ZM22.8429 6.88614V4.61485C22.8426 4.41397 22.7627 4.22138 22.6207 4.07934C22.4786 3.93729 22.2861 3.85738 22.0852 3.85714H19.8139V4.61392C19.8139 4.81476 19.7341 5.00737 19.5921 5.14938C19.4501 5.29139 19.2575 5.37117 19.0566 5.37117C18.8558 5.37117 18.6632 5.29139 18.5212 5.14938C18.3792 5.00737 18.2994 4.81476 18.2994 4.61392V3.85714H7.70067V4.61392C7.70067 4.81476 7.62089 5.00737 7.47888 5.14938C7.33687 5.29139 7.14426 5.37117 6.94342 5.37117C6.74259 5.37117 6.54998 5.29139 6.40797 5.14938C6.26596 5.00737 6.18617 4.81476 6.18617 4.61392V3.85714H3.91489C3.71401 3.85738 3.52142 3.93729 3.37938 4.07934C3.23733 4.22138 3.15742 4.41397 3.15717 4.61485V6.88614H22.8429ZM22.0861 2.34356C22.6883 2.3443 23.2655 2.58383 23.6913 3.00962C24.1171 3.43541 24.3567 4.01269 24.3574 4.61485V26.57H1.64453V4.61485C1.64551 4.01302 1.88503 3.43611 2.31059 3.01055C2.73615 2.58499 3.31305 2.34548 3.91489 2.34449H6.18617V1.58678C6.18617 1.38594 6.26596 1.19333 6.40797 1.05132C6.54998 0.90931 6.74259 0.829529 6.94342 0.829529C7.14426 0.829529 7.33687 0.90931 7.47888 1.05132C7.62089 1.19333 7.70067 1.38594 7.70067 1.58678V2.34356H18.2994V1.58678C18.2994 1.38594 18.3792 1.19333 18.5212 1.05132C18.6632 0.90931 18.8558 0.829529 19.0566 0.829529C19.2575 0.829529 19.4501 0.90931 19.5921 1.05132C19.7341 1.19333 19.8139 1.38594 19.8139 1.58678V2.34356H22.0861Z" />
</svg>
