<svg width="26" height="19" viewBox="0 0 26 19" fill="none" xmlns="http://www.w3.org/2000/svg">
<path d="M25.3523 17.1537H18.3338V15.6429H24.1458C24.4355 14.0929 24.3987 12.4995 24.0377 10.9646C23.6767 9.42964 22.9994 7.98688 22.0491 6.7285C21.0987 5.47013 19.8963 4.42381 18.5187 3.65643C17.141 2.88904 15.6183 2.41746 14.048 2.27182C12.4778 2.12618 10.8943 2.30969 9.39901 2.81061C7.90367 3.31153 6.52928 4.11886 5.36369 5.18099C4.1981 6.24312 3.26693 7.5367 2.62969 8.97906C1.99246 10.4214 1.66317 11.9808 1.66287 13.5577C1.66102 14.2582 1.72316 14.9574 1.84849 15.6466H8.376V17.1583H0.645643L0.506424 16.5811C0.268884 15.5909 0.149868 14.576 0.151881 13.5577C0.151881 6.47145 5.91554 0.707642 12.9999 0.707642C20.0843 0.707642 25.8479 6.47145 25.8479 13.5577C25.85 14.5758 25.7304 15.5905 25.4915 16.5802L25.3523 17.1537ZM6.17727 8.51212L4.66906 7.00412L5.73734 5.93507L7.24554 7.44399L6.17727 8.51212ZM19.8207 8.51212L18.7543 7.44399L20.2625 5.93599L21.3308 7.00412L19.8207 8.51212ZM12.2435 5.37455V3.24015H13.7554V5.37455H12.2435ZM13.6942 18.58C13.1602 18.5801 12.6363 18.435 12.1785 18.1602C11.7207 17.8854 11.3463 17.4913 11.0954 17.02C10.5014 15.899 9.63546 10.3115 9.46747 9.20163C9.44436 9.04687 9.46983 8.88876 9.54036 8.74908C9.61089 8.6094 9.72301 8.49504 9.86127 8.42174C9.99953 8.34845 10.1571 8.31983 10.3123 8.33984C10.4675 8.35985 10.6127 8.4275 10.7279 8.53347C11.552 9.29535 15.6915 13.1475 16.2855 14.2694C16.5231 14.7164 16.6411 15.2172 16.6279 15.7231C16.6147 16.2291 16.4707 16.7231 16.2101 17.157C15.9494 17.5909 15.5809 17.95 15.1404 18.1994C14.6998 18.4487 14.2022 18.5798 13.696 18.58H13.6942ZM11.3117 11.1634C11.6987 13.4426 12.1683 15.8229 12.4254 16.3129C12.6025 16.6475 12.9053 16.898 13.2672 17.0094C13.629 17.1208 14.0203 17.0839 14.355 16.9068C14.6896 16.7297 14.9402 16.427 15.0516 16.0652C15.163 15.7033 15.1261 15.3121 14.949 14.9775C14.6872 14.4857 12.9804 12.7633 11.3117 11.1634Z"/>
</svg>
