<svg width="26" height="19" viewBox="0 0 26 19" fill="none" xmlns="http://www.w3.org/2000/svg">
<path d="M17.4844 17.542C17.4844 17.399 17.4844 14.968 16.6785 13.499C16.0936 12.394 14.5469 11.887 12.1293 11.003C11.9083 10.925 11.6874 10.86 11.4664 10.782V9.67697C12.1943 9.01397 12.5712 8.06497 12.5712 7.03797V4.54197C12.5582 2.40997 10.8685 0.719971 8.7369 0.719971C6.60527 0.719971 4.92857 2.40997 4.92857 4.54197V7.03797C4.92857 7.98697 5.37049 8.94897 6.03338 9.67697V10.782C5.81242 10.86 5.59145 10.925 5.37049 11.003C2.95292 11.809 1.40619 12.394 0.821297 13.499C0.00244141 14.968 0.00244141 17.464 0.00244141 17.542C0.00244141 17.984 0.301389 18.27 0.730313 18.27H16.8085C17.2634 18.27 17.5493 17.971 17.4844 17.542ZM1.47118 16.801C1.54917 16.073 1.69214 14.89 1.9131 14.227C2.21205 13.564 3.90175 12.979 5.65644 12.394C6.02038 12.251 6.38431 12.095 6.82624 11.952C7.12518 11.874 7.34614 11.588 7.34614 11.289V9.39097C7.34614 9.16997 7.26816 8.94897 7.12518 8.80597C6.60527 8.36397 6.31932 7.70097 6.31932 7.03797V4.54197C6.31932 3.21597 7.34614 2.18897 8.67191 2.18897C9.99767 2.18897 11.0245 3.21597 11.0245 4.54197V7.03797C11.0245 7.70097 10.7255 8.36397 10.2186 8.80597C10.0757 8.94897 9.99767 9.16997 9.99767 9.39097V11.302C9.99767 11.601 10.2186 11.887 10.5176 11.965C10.8815 12.108 11.3234 12.264 11.6874 12.407C13.4551 13.07 15.1448 13.655 15.4307 14.24C15.7947 14.903 15.9506 16.008 16.0156 16.814H1.47118V16.801ZM25.4779 11.003C25.114 10.197 24.0092 9.75497 22.5405 9.23497L22.3195 9.15697V8.71497C22.9044 8.19497 23.2033 7.46697 23.2033 6.66097V5.26997C23.2033 3.65797 21.9556 2.40997 20.3438 2.40997C18.7321 2.40997 17.4844 3.73597 17.4844 5.26997V6.66097C17.4844 7.46697 17.7833 8.20797 18.3682 8.71497V9.16997L18.1472 9.24797C17.1984 9.61197 16.4575 9.83297 15.9506 10.197C15.7297 10.34 15.6517 10.561 15.6517 10.86C15.7297 11.081 15.8726 11.302 16.0936 11.445C17.1204 11.965 17.7053 12.394 17.9263 12.836C18.2252 13.421 18.4462 14.162 18.5892 15.189C18.6671 15.488 18.9531 15.774 19.317 15.774H25.27C25.7119 15.774 25.9978 15.41 25.9978 15.111C25.9978 14.604 25.9978 11.952 25.4779 11.003ZM19.9019 14.305C19.759 13.421 19.538 12.693 19.239 12.108C19.0181 11.588 18.5762 11.224 17.9913 10.782C18.2122 10.639 18.4332 10.561 18.6541 10.483L19.382 10.184C19.603 10.106 19.8239 9.81997 19.8239 9.52097V8.27297C19.8239 8.05197 19.746 7.83097 19.525 7.68797C19.1611 7.46697 18.9401 7.02497 18.9401 6.58297V5.20497C18.9401 4.39897 19.525 3.81397 20.3308 3.81397C21.1367 3.81397 21.7216 4.47697 21.7216 5.20497V6.59597C21.7216 7.03797 21.5006 7.40197 21.1367 7.70097C20.9937 7.84397 20.8378 8.06497 20.8378 8.28597V9.61197C20.8378 9.91097 20.9807 10.197 21.2797 10.275L22.0076 10.574C22.8914 10.873 23.9962 11.302 24.1392 11.601C24.3601 11.965 24.5031 13.213 24.5031 14.318H19.9019V14.305Z"/>
</svg>
