<svg width="26" height="27" viewBox="0 0 26 27" fill="none" xmlns="http://www.w3.org/2000/svg">
<path d="M8.51708 11.5725H17.4834V10.0775H8.51708V11.5725ZM8.51708 16.0556H15.9893V14.5615H8.51708V16.0556ZM8.51708 7.08932H15.9893V5.59432H8.51708V7.08932ZM23.4615 10.3282H21.2199V1.36096H4.78422V10.3272H2.53893C1.94466 10.328 1.37494 10.5644 0.954719 10.9846C0.534502 11.4048 0.2981 11.9745 0.297363 12.5688V23.0301C0.2981 23.6244 0.534502 24.1941 0.954719 24.6143C1.37494 25.0345 1.94466 25.2709 2.53893 25.2717H23.4615C24.0558 25.2709 24.6255 25.0345 25.0457 24.6143C25.4659 24.1941 25.7023 23.6244 25.7031 23.0301V12.5688C25.7023 11.9745 25.4659 11.4048 25.0457 10.9846C24.6255 10.5644 24.0558 10.328 23.4615 10.3272V10.3282ZM23.4615 11.8222C23.6581 11.8237 23.8462 11.9024 23.9852 12.0414C24.1242 12.1804 24.2029 12.3685 24.2044 12.5651V17.3723L21.2153 19.1654V11.8222H23.4615ZM6.27551 19.2945V2.85875H19.7249V19.2945H6.27551ZM2.53893 11.8222H4.78051V19.17L1.79143 17.377V12.5688C1.79193 12.3708 1.87087 12.1811 2.01097 12.0411C2.15107 11.9012 2.34092 11.8225 2.53893 11.8222ZM23.4615 23.7776H2.53893C2.34237 23.7761 2.15426 23.6974 2.01527 23.5584C1.87627 23.4194 1.79754 23.2313 1.79608 23.0347V19.1171L4.58179 20.7885H21.427L24.2127 19.1171V23.0282C24.2128 23.1268 24.1935 23.2245 24.1558 23.3156C24.118 23.4067 24.0627 23.4894 23.9929 23.5591C23.9231 23.6287 23.8402 23.6838 23.749 23.7213C23.6578 23.7589 23.5601 23.778 23.4615 23.7776Z" />
</svg>
