<svg width="26" height="27" viewBox="0 0 26 27" fill="none" xmlns="http://www.w3.org/2000/svg">
<path d="M24.1 2.01992V24.2199H1.90009V2.01992H24.1ZM25.1002 1.02014H0.899902V25.22H25.0998L25.1002 1.02014ZM20.6002 6.1198V11.2199H18.3V6.1198H20.6002ZM21.6 5.12002H17.2998V12.22H21.6V5.12002ZM20.6002 15.2198V20.3199H18.3V15.2198H20.6002ZM21.6 14.22H17.2998V21.32H21.6V14.22ZM14.4999 18.0201V20.3203H5.39993V18.0201H14.4999ZM15.5001 17.0199H4.40015V21.32H15.5001V17.0199ZM9.00012 6.1198V10.5199V11.5201H10.0003H13.9003C13.3003 13.1199 11.8004 14.22 10.0003 14.22C7.70012 14.22 5.90043 12.4199 5.90043 10.1201C5.90003 8.22011 7.20003 6.51995 9.00012 6.1198ZM9.9999 5.02008C7.20003 5.02008 4.89984 7.32027 4.89984 10.1201C4.89984 12.92 7.20003 15.2202 9.9999 15.2202C12.6998 15.2202 14.9001 13.1203 15.1 10.5203H9.9999V5.02008ZM11.9999 6.1198C12.8997 6.41961 13.5997 7.21992 13.8 8.2197H11.9999V6.1198ZM11.0001 5.02008V9.21989H14.9001C14.9001 9.11995 14.9001 9.02002 14.9001 8.92008C14.9001 6.71983 13.1999 5.02008 11.0001 5.02008Z"/>
</svg>
