<svg width="26" height="27" viewBox="0 0 26 27" fill="none" xmlns="http://www.w3.org/2000/svg">
<path d="M23.1112 25.5147H2.8889C2.50378 25.5147 2.11865 25.2258 2.11865 24.7444V5.87005C2.11865 5.00352 2.50378 4.23286 3.08146 3.65517C3.65915 3.07748 4.52609 2.78864 5.39262 2.78864H7.22237C7.6075 2.78864 7.99262 3.07748 7.99262 3.55889C7.99262 4.0403 7.6075 4.32914 7.22237 4.32914H5.39262C4.91121 4.32914 4.42981 4.5217 4.14096 4.81055C3.75543 5.0998 3.65915 5.48492 3.65915 5.87005V23.9738H22.4368V5.87005C22.4368 5.48492 22.2443 5.00352 21.9554 4.71467C21.5703 4.42583 21.1852 4.23327 20.7038 4.23327H18.2963C17.9112 4.23327 17.5261 3.94442 17.5261 3.46302C17.5261 2.98161 17.8149 2.69277 18.2963 2.69277H20.6075C21.474 2.69277 22.2447 2.98161 22.9187 3.5593C23.4963 4.13698 23.8815 4.90764 23.8815 5.77417V24.744C23.8815 25.1291 23.4963 25.5147 23.1112 25.5147ZM16.9484 7.21839H9.05171C7.89634 7.21839 7.0294 6.35186 7.0294 5.29236V2.78864C7.0294 1.72955 7.99221 0.86261 9.05171 0.86261H16.948C18.1034 0.86261 18.9703 1.72914 18.9703 2.78864V5.19608C19.0666 6.35145 18.1038 7.21839 16.9484 7.21839ZM9.05171 2.40352C8.66659 2.40352 8.47403 2.59608 8.47403 2.78864V5.19608C8.47403 5.48492 8.66659 5.67748 9.05171 5.67748H16.948C17.2368 5.67748 17.5257 5.48492 17.5257 5.19608V2.78864C17.5257 2.4998 17.2368 2.30724 16.948 2.30724H9.05171V2.40352ZM6.74096 9.33658H14.4447V10.7812H6.74096V9.33658ZM6.74096 12.2254H20.2224V13.67H6.74096V12.2254ZM6.74096 15.1147H18.2963V16.5593H6.74096V15.1147ZM6.74096 18.0035H11.5558V19.4481H6.74096V18.0035Z" fill="white"/>
</svg>
