<svg width="26" height="25" viewBox="0 0 26 25" fill="none" xmlns="http://www.w3.org/2000/svg">
<path d="M6.80835 18.3857C5.7007 18.3857 4.74533 19.1286 4.58006 20.1249C4.56311 20.2365 4.5538 20.3491 4.55221 20.462V20.4898C4.54844 20.9898 4.72814 21.4738 5.05729 21.8502C5.25341 22.0832 5.49817 22.2705 5.77437 22.3988C6.05058 22.5272 6.35153 22.5935 6.65608 22.5931H18.5709V21.1891H6.12965V19.786H18.5709V18.3857H6.80835ZM8.75809 8.56699H17.1736V5.75713H8.75717L8.75809 8.56699ZM7.35428 9.96727V4.35684H18.5709V9.96727H7.35428ZM8.05526 12.7725V11.3703H17.8736V12.7734L8.05526 12.7725ZM6.65422 1.55163C6.09702 1.55334 5.56312 1.77548 5.16911 2.16954C4.7751 2.5636 4.55299 3.09757 4.55128 3.65484V17.7246C5.20573 17.2429 5.99675 16.9827 6.80927 16.9817H21.386V1.55163H6.65422ZM3.14746 3.65484C3.14795 2.72491 3.5176 1.83322 4.17517 1.17574C4.83273 0.518266 5.72441 0.148806 6.65422 0.14856H22.7824V18.3857H19.9775V22.594H22.0814V23.9943H6.65422C5.7251 23.9921 4.83466 23.6219 4.17766 22.9649C3.52067 22.3078 3.1506 21.4172 3.14839 20.488L3.14746 3.65484Z" />
</svg>
